<svg width="336" height="180" xmlns="http://www.w3.org/2000/svg" xmlns:xlink="http://www.w3.org/1999/xlink" overflow="hidden"><defs><clipPath id="clip0"><rect x="0" y="0" width="336" height="180"/></clipPath></defs><g clip-path="url(#clip0)"><rect x="0" y="0" width="336" height="180" fill="#FFFFFF"/><path d="M0 0 24.4217 44.0997" stroke="#000000" stroke-linejoin="round" stroke-miterlimit="10" stroke-dasharray="4 3" fill="none" fill-rule="evenodd" transform="matrix(-1 0 0 1 160.922 64.5001)"/><rect x="279.5" y="126.5" width="51" height="47" stroke="#000000" stroke-width="1.33333" stroke-miterlimit="8" fill="#FFFFFF"/><rect x="166.5" y="126.5" width="114" height="47" stroke="#000000" stroke-width="1.33333" stroke-miterlimit="8" fill="#FFFFFF"/><path d="M0.333333-1.00974e-06 0.333418 27.9913-0.333249 27.9913-0.333333 1.00974e-06ZM4.00008 26.6579 0.000104987 34.658-3.99992 26.658Z" fill="#4472C4" transform="matrix(1 0 0 -1 254.5 149.158)"/><path d="M29.3122 14.7357 28.8872 17.5827 27.9251 20.2123 26.3885 22.5813 24.4727 24.6248 22.2338 26.288 19.6115 27.5032 16.798 28.2066 13.7943 28.3344 10.8568 27.8874 8.11213 26.9299 5.61852 25.5233 3.50346 23.6646 1.84098 21.4266 0.561332 18.9313-0.143975 16.1742-0.27178 13.2986 0.0488479 10.7977 0.881262 8.42853 2.0326 6.25379 3.58712 4.31064 8.56893 1.16025 8.92524 1.7237 3.99066 4.84423 4.07279 4.77073 2.57279 6.64573 2.6071 6.59346 1.4821 8.71846 1.50199 8.673 0.689487 10.9855 0.705627 10.9174 0.393127 13.3549 0.395505 13.2977 0.520505 16.1102 0.510434 16.0424 1.19793 18.7299 1.17161 18.6604 2.42161 21.0979 2.39258 21.0512 4.01758 23.2387 3.97004 23.1871 6.03254 24.9996 5.97627 24.9597 8.41377 26.3347 8.35979 26.3103 11.0473 27.2478 10.9876 27.233 13.8626 27.6705 13.7983 27.667 16.7358 27.542 16.6692 27.5516 19.4192 26.8641 19.3598 26.8851 21.9223 25.6976 21.8637 25.7324 24.0512 24.1074 24.0068 24.147 25.8818 22.147 25.8453 22.1936 27.3453 19.8811 27.312 19.948 28.2495 17.3855 28.2328 17.4508 28.6529 14.6373ZM6.61305-0.640038 12.5259 0.130334 8.3619 4.39841Z" fill="#ED7D31" transform="matrix(1 0 0 -1 239.5 163.5)"/><rect x="174.5" y="127.5" width="20" height="7.99999" stroke="#000000" stroke-width="0.666667" stroke-miterlimit="8" stroke-dasharray="2.66667 2" fill="#FFFFFF"/><rect x="205.5" y="127.5" width="20" height="7.99999" stroke="#000000" stroke-width="0.666667" stroke-miterlimit="8" stroke-dasharray="2.66667 2" fill="#FFFFFF"/><rect x="174.5" y="163.5" width="20" height="8" stroke="#000000" stroke-width="0.666667" stroke-miterlimit="8" stroke-dasharray="2.66667 2" fill="#FFFFFF"/><path d="M30.2747 22.189 220.115 132.51 196.802 172.627 6.96159 62.3063Z" stroke="#000000" stroke-width="1.33333" stroke-miterlimit="8" fill="#FFFFFF" fill-rule="evenodd"/><path d="M77.5001 76.5001 238.896 170.399" stroke="#000000" stroke-width="0.666667" stroke-miterlimit="8" stroke-dasharray="2.66667 2" fill="none" fill-rule="evenodd"/><path d="M111.247 70.802 129.015 81.1276 125.368 87.4039 107.599 77.0782Z" stroke="#000000" stroke-width="0.666667" stroke-miterlimit="8" stroke-dasharray="2.66667 2" fill="#FFFFFF" fill-rule="evenodd"/><path d="M77.5001 76.5001 238.437 76.5002" stroke="#000000" stroke-width="0.666667" stroke-miterlimit="8" stroke-dasharray="2.66667 2" fill="none" fill-rule="evenodd"/><path d="M190.5 76.24C190.546 96.4235 185.186 116.251 174.976 133.662" stroke="#4472C4" stroke-width="0.666667" stroke-miterlimit="8" fill="none" fill-rule="evenodd"/><path d="M0 0 52.1119 0.000104987" stroke="#000000" stroke-width="0.666667" stroke-miterlimit="8" stroke-dasharray="2.66667 2" fill="none" fill-rule="evenodd" transform="matrix(1 0 0 -1 202.5 149.5)"/><text font-family="Calibri,Calibri_MSFontService,sans-serif" font-weight="400" font-size="13" transform="translate(256.709 115)">$v_{1}^y$</text><text font-family="Calibri,Calibri_MSFontService,sans-serif" font-weight="400" font-size="13" transform="translate(254.088 163)">$\omega_{1}^z$</text><path d="M254.5 149.167 281.29 149.167 281.29 149.833 254.5 149.833ZM279.957 145.5 287.957 149.5 279.957 153.5Z" fill="#4472C4"/><text font-family="Calibri,Calibri_MSFontService,sans-serif" font-weight="400" font-size="13" transform="translate(283.098 164)">$v_{1}^x$</text><path d="M136.669 110.213 150.413 118.273 150.076 118.849 136.331 110.788ZM151.118 114.436 155.995 121.934 147.071 121.337Z" fill="#4472C4"/><path d="M0.289893-0.16454 13.5601 23.2154 12.9804 23.5445-0.289893 0.16454ZM14.9312 20.9041 15.2447 26.8587 10.2929 23.5367Z" fill="#4472C4" transform="matrix(1 0 0 -1 135.5 111.359)"/><path d="M2.1313 21.2518 0.81734 18.8193-0.0146272 16.2594-0.335263 13.5661-0.0786055 10.9353 0.690533 8.37152 1.97188 6.00103 3.70179 3.88669 5.94174 2.09473 8.50043 0.751418 11.185-0.0155868 13.997-0.335132 16.6871-0.0789265 19.3714 0.688003 21.8003 1.90245 24.0416 3.56744 25.8992 5.74535 27.2434 8.11374 28.0767 10.6134 28.3974 13.1792 28.2049 15.7458 27.4952 18.2619 25.4646 21.4851 24.9006 21.1298 26.9055 17.9473 26.8667 18.0345 27.5542 15.597 27.5426 15.6626 27.7301 13.1626 27.7317 13.2288 27.4192 10.7288 27.4338 10.7929 26.6213 8.35541 26.6476 8.41453 25.3351 6.10204 25.3714 6.15382 23.5589 4.02882 23.6137 4.08008 21.4262 2.45508 21.4759 2.48564 19.1009 1.29814 19.1584 1.32051 16.5334 0.570508 16.5934 0.581832 13.9684 0.331832 14.0376 0.331202 11.2876 0.643702 11.3416 0.633008 8.71657 1.38301 8.77994 1.35763 6.27994 2.67013 6.33323 2.63529 4.14573 4.38529 4.19549 4.33608 2.50799 6.39858 2.54324 6.34601 1.29324 8.65851 1.31928 8.59578 0.569275 11.0958 0.581758 11.0324 0.331758 13.5949 0.330996 13.5231 0.643496 16.1481 0.629511 16.0845 1.44201 18.5845 1.41828 18.5291 2.71787 20.935ZM28.0469 22.1348 22.4712 24.2482 24.1259 18.5196Z" fill="#ED7D31" transform="matrix(-1 1.22465e-16 1.22465e-16 1 150.5 97.5001)"/><text font-family="Calibri,Calibri_MSFontService,sans-serif" font-weight="400" font-size="13" transform="translate(153.041 100)">$v_{2}^y$</text><text font-family="Calibri,Calibri_MSFontService,sans-serif" font-weight="400" font-size="13" transform="translate(158.112 123)">$v_{2}^x$</text><text font-family="Calibri,Calibri_MSFontService,sans-serif" font-weight="400" font-size="13" transform="translate(140.26 131)">$\omega_{2}^z$</text><path d="M50.3514 35.4142 68.1199 45.7399 64.4726 52.0162 46.7041 41.6905Z" stroke="#000000" stroke-width="0.666667" stroke-miterlimit="8" stroke-dasharray="2.66667 2" fill="#FFFFFF" fill-rule="evenodd"/><path d="M80.6941 53.2852 98.4626 63.6109 94.8153 69.8872 77.0468 59.5615Z" stroke="#000000" stroke-width="0.666667" stroke-miterlimit="8" stroke-dasharray="2.66667 2" fill="#FFFFFF" fill-rule="evenodd"/><path d="M32.1929 66.6548 49.9614 76.9804 46.3141 83.2567 28.5456 72.9311Z" stroke="#000000" stroke-width="0.666667" stroke-miterlimit="8" stroke-dasharray="2.66667 2" fill="#FFFFFF" fill-rule="evenodd"/><path d="M62.5356 84.5257 80.3041 94.8514 76.6568 101.128 58.8883 90.802Z" stroke="#000000" stroke-width="0.666667" stroke-miterlimit="8" stroke-dasharray="2.66667 2" fill="#FFFFFF" fill-rule="evenodd"/><path d="M93.0881 102.042 110.857 112.368 107.209 118.644 89.4408 108.319Z" stroke="#000000" stroke-width="0.666667" stroke-miterlimit="8" stroke-dasharray="2.66667 2" fill="#FFFFFF" fill-rule="evenodd"/><path d="M293.94 132.227 312.391 123.177 315.588 129.695 297.136 138.744Z" stroke="#000000" stroke-width="0.666667" stroke-miterlimit="8" stroke-dasharray="2.66667 2" fill="#FFFFFF" fill-rule="evenodd"/><rect x="205.5" y="163.5" width="20" height="8" stroke="#000000" stroke-width="0.666667" stroke-miterlimit="8" stroke-dasharray="2.66667 2" fill="#FFFFFF"/><path d="M293.971 168.631 312.191 159.124 315.549 165.56 297.329 175.066Z" stroke="#000000" stroke-width="0.666667" stroke-miterlimit="8" stroke-dasharray="2.66667 2" fill="#FFFFFF" fill-rule="evenodd"/><path d="M0.333333-1.00975e-06 0.333418 27.9912-0.333249 27.9912-0.333333 1.00975e-06ZM4.00008 26.6578 0.000104987 34.6578-3.99992 26.6579Z" fill="#4472C4" transform="matrix(1 0 0 -1 202.5 149.158)"/><text font-family="Calibri,Calibri_MSFontService,sans-serif" font-weight="400" font-size="13" transform="translate(203.138 115)">$f_{1}^y$</text><path d="M202.5 149.167 215.9 149.167 215.9 149.833 202.5 149.833ZM214.567 145.5 222.567 149.5 214.567 153.5Z" fill="#4472C4"/><text font-family="Calibri,Calibri_MSFontService,sans-serif" font-weight="400" font-size="13" transform="translate(223.921 162)">$f_{1}^y$</text><path d="M0 0 34.7266 62.563" stroke="#000000" stroke-linejoin="round" stroke-miterlimit="10" stroke-dasharray="4 3" fill="none" fill-rule="evenodd" transform="matrix(1 0 0 -1 38.5001 78.0631)"/><path d="M158.073 70.6851 71.9064 21.1184 72.2388 20.5405 158.405 70.1072ZM153.92 62.1958 158.812 70.7257 148.979 70.7853C148.795 70.7864 148.645 70.6381 148.644 70.454 148.643 70.2699 148.791 70.1197 148.975 70.1186L158.236 70.0625 157.949 70.5617 153.342 62.5275C153.25 62.3678 153.305 62.1641 153.465 62.0725 153.625 61.9809 153.828 62.0361 153.92 62.1958ZM76.3906 29.0292 71.4987 20.4993 81.3316 20.4397C81.5157 20.4386 81.6658 20.5869 81.6669 20.771 81.6681 20.9551 81.5197 21.1053 81.3356 21.1064L72.0742 21.1625 72.3613 20.6633 76.9689 28.6975C77.0605 28.8572 77.0053 29.0609 76.8456 29.1525 76.6859 29.2441 76.4822 29.1889 76.3906 29.0292Z"/><text font-family="Calibri,Calibri_MSFontService,sans-serif" font-weight="400" font-size="13" transform="translate(121.084 36)">$l_{k,i}^x$</text><text font-family="Calibri,Calibri_MSFontService,sans-serif" font-weight="400" font-size="13" transform="translate(194.145 90)">$\theta_{12}^z$</text></g></svg>